# xmcd CD database file
#
# Track frame offsets:
#	150
#	15425
#	52360
#	90535
#	114170
#	143125
#	163750
#	192292
#	225300
#	251282
#	282270
#
# Disc length: 4040 seconds
#
# Revision: 1
# Processed by: cddbd v1.5.2PL0 Copyright (c) Steve Scherf et al.
# Submitted via: jetAudio 5
#
DISCID=890fc60b
DTITLE=Mike Milligan and the Altar Boyz - Going Up
DYEAR=2007
DGENRE=Blues
TTITLE0=Rockin' Blues Rhythm
TTITLE1=Run Daddy Run
TTITLE2=Forever
TTITLE3=Walkin' Spell
TTITLE4=Voodoo Lover
TTITLE5=Up in Here
TTITLE6=Lonely When She Dies
TTITLE7=Don't Mistreat Me
TTITLE8=Where is Your Comfort
TTITLE9=Walk A Mile
TTITLE10=Lucinda Blues
EXTD=
EXTT0=
EXTT1=
EXTT2=
EXTT3=
EXTT4=
EXTT5=
EXTT6=
EXTT7=
EXTT8=
EXTT9=
EXTT10=
PLAYORDER=
